<svg width="20" height="32" viewBox="0 0 20 32" fill="none" xmlns="http://www.w3.org/2000/svg">
<path fill-rule="evenodd" clip-rule="evenodd" d="M2.99452 30.2127C1.61154 29.7877 0.652336 28.5297 0.60853 27.0835L0.4375 0.131592H19.4801L19.3091 27.0835C19.2653 28.5297 18.3061 29.7877 16.9231 30.2127C12.385 31.6075 7.53263 31.6075 2.99452 30.2127ZM3.83395 26.9858L3.69064 22.2549C5.58821 23.1643 7.71401 23.6737 9.95878 23.6737C12.2036 23.6737 14.3294 23.1643 16.227 22.2549L16.0837 26.9858C16.0817 27.0516 16.038 27.1089 15.9751 27.1282C12.0547 28.3332 7.8629 28.3332 3.94255 27.1282C3.8796 27.1089 3.83595 27.0516 3.83395 26.9858ZM3.83395 19.4322L3.69064 3.52685L16.227 3.52682L16.0837 19.4322C16.0817 19.498 16.038 19.5553 15.9751 19.5746C12.0547 20.7796 7.8629 20.7796 3.94255 19.5746C3.8796 19.5553 3.83595 19.498 3.83395 19.4322Z" fill="#10BB87"/>
</svg>
