<svg width="32" height="45" viewBox="0 0 32 45" fill="none" xmlns="http://www.w3.org/2000/svg">
<path d="M11.7329 0.466064C10.8418 0.466064 10.1195 1.18843 10.1195 2.07952V3.69297H2.59001C1.69893 3.69297 0.976562 4.41533 0.976562 5.30642C0.976562 6.1975 1.69893 6.91987 2.59001 6.91987H29.4809C30.3719 6.91987 31.0943 6.1975 31.0943 5.30642C31.0943 4.41533 30.3719 3.69297 29.4809 3.69297H21.9514V2.07952C21.9514 1.18843 21.2291 0.466064 20.338 0.466064H11.7329Z" fill="#10BB87"/>
<path fill-rule="evenodd" clip-rule="evenodd" d="M3.10938 12.6577C3.20017 11.8406 3.89083 11.2224 4.71297 11.2224H27.3579C28.18 11.2224 28.8707 11.8406 28.9615 12.6577L29.392 16.5329C30.1726 23.5574 30.1726 30.6469 29.392 37.6715L29.3497 38.053C29.0398 40.8413 26.8788 43.0647 24.1004 43.4537C18.7498 44.2028 13.321 44.2028 7.9705 43.4537C5.19206 43.0647 3.03102 40.8413 2.7212 38.053L2.67881 37.6715C1.8983 30.6469 1.8983 23.5574 2.67881 16.5329L3.10938 12.6577ZM6.15707 14.4493L5.88597 16.8892C5.13178 23.677 5.13178 30.5274 5.88597 37.3151L5.92836 37.6966C6.0753 39.019 7.1002 40.0735 8.41791 40.258C13.4716 40.9655 18.5992 40.9655 23.653 40.258C24.9707 40.0735 25.9956 39.019 26.1425 37.6966L26.1849 37.3151C26.9391 30.5274 26.9391 23.677 26.1849 16.8892L25.9138 14.4493H6.15707Z" fill="#10BB87"/>
</svg>
