<svg width="30" height="46" viewBox="0 0 30 46" fill="none" xmlns="http://www.w3.org/2000/svg">
<path fill-rule="evenodd" clip-rule="evenodd" d="M29.555 20.0139L29.5409 20.5364L29.555 21.0896L29.5417 21.6128L29.555 22.1652L29.5423 22.692L29.5549 23.2408L29.2055 38.5213C29.1227 42.1468 26.3652 45.1492 22.7599 45.5396C17.6239 46.0958 12.4429 46.0958 7.30688 45.5396C3.70154 45.1492 0.94412 42.1468 0.861237 38.5213L0.511911 23.2408L0.52454 22.6884L0.51195 22.1652L0.525189 21.615L0.511843 21.0896L0.525835 20.5387L0.511719 20.0139L0.864538 6.89564C0.86946 6.71261 0.882324 6.53148 0.902807 6.3526L0.91083 6.27696L0.917195 6.216C1.09061 4.44313 2.07305 2.89689 3.50477 1.96898C3.61159 1.89794 3.72091 1.83029 3.83259 1.76619C3.94184 1.70154 4.05334 1.64022 4.16697 1.58238C4.86957 1.21158 5.65369 0.971245 6.48838 0.894411C12.173 0.371134 17.8937 0.371134 23.5783 0.894411C24.4117 0.971123 25.1946 1.21082 25.8964 1.58061C26.01 1.63836 26.1216 1.6996 26.2308 1.76416C26.346 1.83019 26.4587 1.89998 26.5688 1.97337C27.9929 2.89921 28.971 4.43742 29.1481 6.20136L29.1649 6.36121C29.1848 6.53729 29.1973 6.71555 29.2022 6.89565L29.555 20.0139ZM25.9495 6.72057L26.2872 21.4926L26.0135 37.6543C25.9519 39.9419 24.1898 41.8223 21.9111 42.032C17.3356 42.4532 12.7311 42.4532 8.15565 42.032C5.87688 41.8223 4.11477 39.9419 4.05324 37.6543L3.77959 21.4939L4.11733 6.72056C4.11805 6.68878 4.11937 6.65714 4.12128 6.62564C4.24924 5.76023 4.75077 5.01321 5.46186 4.55959C5.73125 4.41915 6.03015 4.32602 6.3481 4.29159C12.1214 3.66637 17.9454 3.66637 23.7187 4.29159C24.0365 4.32601 24.3353 4.41908 24.6046 4.55942C25.316 5.01315 25.8177 5.76053 25.9455 6.62636C25.9474 6.65762 25.9487 6.68902 25.9495 6.72057ZM15.0334 39.0463C16.8156 39.0463 18.2603 37.6016 18.2603 35.8194C18.2603 34.0372 16.8156 32.5925 15.0334 32.5925C13.2513 32.5925 11.8065 34.0372 11.8065 35.8194C11.8065 37.6016 13.2513 39.0463 15.0334 39.0463Z" fill="#10BB87"/>
</svg>
